HIERARCHY
ROOT Hips
{
	OFFSET -3.958830 18.904000 13.208200
	CHANNELS 6 Xposition Yposition Zposition Zrotation Yrotation Xrotation 
	JOINT LHipJoint
	{
		OFFSET 0.000000 0.000000 0.000000
		CHANNELS 3 Zrotation Yrotation Xrotation
		JOINT LeftUpLeg
		{
			OFFSET 1.800000 -1.400000 0.085000
			CHANNELS 3 Zrotation Yrotation Xrotation
			JOINT LeftLeg
			{
				OFFSET 2.215000 -6.000000 0.000000
				CHANNELS 3 Zrotation Yrotation Xrotation
				JOINT LeftFoot
				{
					OFFSET 2.500000 -6.900000 0.000000
					CHANNELS 3 Zrotation Yrotation Xrotation
					JOINT LeftToeBase
					{
						OFFSET 0.200000 -0.500000 1.950000
						CHANNELS 3 Zrotation Yrotation Xrotation
						End Site
						{
							OFFSET 0.000000 0.000000 0.000000
						}
					}
				}
			}
		}
	}
	JOINT RHipJoint
	{
		OFFSET 0.000000 0.000000 0.000000
		CHANNELS 3 Zrotation Yrotation Xrotation
		JOINT RightUpLeg
		{
			OFFSET -1.800000 -1.400000 0.085000
			CHANNELS 3 Zrotation Yrotation Xrotation
			JOINT RightLeg
			{
				OFFSET -2.215000 -6.000000 0.000000
				CHANNELS 3 Zrotation Yrotation Xrotation
				JOINT RightFoot
				{
					OFFSET -2.500000 -6.900000 0.000000
					CHANNELS 3 Zrotation Yrotation Xrotation
					JOINT RightToeBase
					{
						OFFSET -0.200000 -0.500000 1.950000
						CHANNELS 3 Zrotation Yrotation Xrotation
						End Site
						{
							OFFSET 0.000000 0.000000 0.000000
						}
					}
				}
			}
		}
	}
	JOINT LowerBack
	{
		OFFSET 0.000000 0.000000 0.000000
		CHANNELS 3 Zrotation Yrotation Xrotation
		JOINT Spine
		{
			OFFSET -0.087000 1.940000 -0.288900
			CHANNELS 3 Zrotation Yrotation Xrotation
			JOINT Spine1
			{
				OFFSET 0.000000 1.950000 0.060000
				CHANNELS 3 Zrotation Yrotation Xrotation
				JOINT Neck
				{
					OFFSET 0.000000 0.000000 0.000000
					CHANNELS 3 Zrotation Yrotation Xrotation
					JOINT Neck1
					{
						OFFSET 0.000000 1.600000 0.340000
						CHANNELS 3 Zrotation Yrotation Xrotation
						JOINT Head
						{
							OFFSET 0.000000 1.667000 -0.240000
							CHANNELS 3 Zrotation Yrotation Xrotation
							End Site
							{
								OFFSET 0.000000 0.000000 0.000000
							}
						}
					}
				}
				JOINT LeftShoulder
				{
					OFFSET 0.000000 0.000000 0.000000
					CHANNELS 3 Zrotation Yrotation Xrotation
					JOINT LeftArm
					{
						OFFSET 2.700000 1.550000 -0.730000
						CHANNELS 3 Zrotation Yrotation Xrotation
						JOINT LeftForeArm
						{
							OFFSET 5.450000 0.000000 0.000000
							CHANNELS 3 Zrotation Yrotation Xrotation
							JOINT LeftHand
							{
								OFFSET 3.450000 0.000000 0.000000
								CHANNELS 3 Zrotation Yrotation Xrotation
								JOINT LeftHandIndex1
								{
									OFFSET 0.750000 0.000000 0.000000
									CHANNELS 3 Zrotation Yrotation Xrotation
									End Site
									{
										OFFSET 0.000000 0.000000 0.000000
									}
								}
							}
						}
					}
				}
				JOINT RightShoulder
				{
					OFFSET 0.000000 0.000000 0.000000
					CHANNELS 3 Zrotation Yrotation Xrotation
					JOINT RightArm
					{
						OFFSET -2.700000 1.550000 -0.730000
						CHANNELS 3 Zrotation Yrotation Xrotation
						JOINT RightForeArm
						{
							OFFSET -5.450000 0.000000 0.000000
							CHANNELS 3 Zrotation Yrotation Xrotation
							JOINT RightHand
							{
								OFFSET -3.450000 0.000000 0.000000
								CHANNELS 3 Zrotation Yrotation Xrotation
								JOINT RightHandIndex1
								{
									OFFSET -0.750000 0.000000 0.000000
									CHANNELS 3 Zrotation Yrotation Xrotation
									End Site
									{
										OFFSET 0.000000 0.000000 0.000000
									}
								}
							}
						}
					}
				}
			}
		}
	}
}
MOTION
Frames: 9
Frame Time: 0.016667
0.011760 17.491730 -1.077100 -14.133135 0.839834 -1.797696 -14.665631 11.660599 1.420023 8.272811 -0.853978 -10.593589 -3.725259 5.369128 13.850085 -0.429212 4.092068 3.462501 0.003430 -0.447810 0.190100 19.117546 -9.454941 5.463896 -0.248575 19.695278 -35.367521 18.992933 -35.069008 85.622409 -3.407032 -16.959621 -0.623670 -0.212450 0.565990 0.318750 -5.537176 0.721050 -8.069539 25.422786 -3.397705 7.710743 -12.886830 -1.168496 7.267219 4.632110 0.715934 -8.223508 0.932785 -4.849436 30.306016 -8.473870 -2.181900 1.301260 -9.661473 2.724241 0.862283 -41.898778 2.119472 -5.881985 2.475509 -8.327101 -1.190235 -4.203645 2.684778 0.332680 0.359330 -0.206540 0.154860 -0.479466 -3.783582 7.412483 56.590173 -2.226812 -17.468173 -5.038681 83.934683 -10.722603 1.731951 -1.873729 -0.306450 0.185740 0.093110 -0.093710 
-0.002070 17.452100 -1.081370 -13.767809 0.494759 -1.626041 -14.683713 11.690408 1.433675 7.917360 -0.874528 -11.099825 -3.714085 5.498361 14.688069 -0.499857 4.189061 3.437111 -0.030880 -0.509620 0.196800 19.094905 -9.495627 5.414963 -0.113490 19.389677 -34.644779 18.502039 -34.575212 85.564601 -3.349590 -16.898791 -0.603673 -0.213650 0.592940 0.315390 -5.479154 0.703344 -8.035048 24.494079 -2.912347 7.383820 -12.301387 -0.933386 7.285244 4.796804 1.179824 -8.183371 1.697659 -5.674749 29.883600 -10.542030 -1.627850 2.349630 -10.378003 2.284931 0.941294 -40.647551 2.415602 -5.771191 2.492708 -9.353151 -1.220462 -4.250580 2.653561 0.338390 0.412110 -0.249860 0.135840 -0.049050 -3.676352 7.271506 55.712175 -2.401733 -17.724704 -8.442269 82.790968 -12.955967 1.670242 -1.807037 -0.361140 0.197810 0.121170 -0.135140 
-0.032360 17.369350 -1.099080 -12.856892 -0.501968 -1.827224 -14.718956 11.818238 1.497247 7.073986 -0.842845 -11.763358 -3.691788 5.814550 16.613297 -0.486383 4.292809 3.375903 -0.012960 -0.490960 0.234730 19.035386 -9.574611 5.317995 0.255936 18.752866 -32.643633 17.703204 -33.382684 85.059057 -3.276114 -16.598454 -0.553747 -0.206610 0.554240 0.312360 -5.339103 0.538623 -8.033795 22.329993 -2.133737 8.001892 -10.874096 -0.445937 6.961741 4.688930 1.590087 -8.205275 2.191441 -6.302100 30.666980 -11.276150 -1.623570 2.307970 -11.250208 1.638660 1.166114 -39.199038 2.616336 -5.694840 2.720907 -10.711781 -1.232279 -4.216286 2.668106 0.343410 0.395930 -0.231530 0.120400 1.107760 -3.146460 6.856904 53.083188 -2.815483 -17.904283 -11.617716 80.591040 -14.357458 1.674607 -1.723905 -0.350660 0.185080 0.107020 -0.148710 
-0.063950 17.254760 -1.121110 -11.472647 -1.588371 -2.110947 -14.776864 11.976299 1.595926 5.607658 -0.885015 -12.948975 -3.342476 6.264907 19.919347 -0.453477 4.518059 3.268673 0.015540 -0.454180 0.254780 18.948470 -9.665717 5.182058 0.214782 17.826378 -30.406604 17.032362 -31.977648 83.898930 -3.176956 -16.193815 -0.477693 -0.187220 0.533980 0.313350 -5.124149 0.304121 -8.021227 19.455971 -1.337572 8.812309 -9.274851 0.023958 6.394736 4.436947 1.677056 -7.973690 2.162707 -6.311636 31.419179 -11.245100 -1.685600 1.962450 -12.098990 1.470988 1.175494 -37.626350 2.575700 -5.480145 3.059915 -11.870951 -1.252642 -4.186882 2.689594 0.346150 0.382270 -0.215280 0.122220 2.590554 -2.780684 6.145545 50.218099 -2.694334 -17.612153 -14.316907 77.779769 -14.897507 1.678084 -1.647808 -0.337850 0.183970 0.093960 -0.149070 
-0.100010 17.125440 -1.141750 -9.783180 -2.729848 -2.616445 -14.847916 12.155433 1.756059 3.645744 -1.034789 -14.258185 -2.436987 6.655809 23.936399 -0.395017 4.845231 3.131904 0.026620 -0.420880 0.230340 18.840136 -9.783507 4.992816 -0.057239 16.629896 -27.770342 16.197395 -30.150590 82.124454 -3.036496 -15.631849 -0.343480 -0.170280 0.540120 0.289360 -4.853455 0.024762 -8.023751 16.304569 -0.536433 9.976709 -7.855865 0.602397 5.549635 3.989014 1.297708 -7.712420 1.311801 -5.614728 32.513479 -9.876870 -2.074170 1.168640 -12.509921 1.752010 1.008875 -36.426953 2.230474 -5.346666 3.736350 -13.663703 -1.313807 -4.142960 2.682809 0.361470 0.359830 -0.205210 0.136330 4.031738 -2.383236 5.494624 47.922988 -2.370070 -17.287866 -16.630874 74.856663 -15.008282 1.680853 -1.544970 -0.340950 0.221290 0.095730 -0.133620 
-0.134400 16.985690 -1.171130 -8.237292 -4.693331 -2.818688 -14.911725 12.204922 1.966202 1.828955 -1.470201 -16.590276 -1.488042 7.350809 29.648956 -0.237106 5.499786 2.887611 0.071930 -0.340010 0.222280 18.760957 -9.902565 4.768020 -0.079706 15.677682 -25.413614 14.989918 -27.740290 80.105137 -2.873960 -14.964454 -0.197999 -0.128220 0.559060 0.273840 -4.634879 -0.057495 -7.984886 13.519080 0.540631 10.560738 -6.573390 1.474652 5.049921 3.370112 0.793085 -7.125592 0.372316 -4.826201 32.910982 -7.522200 -2.844710 0.353360 -12.925400 2.354631 0.729887 -35.589929 1.496276 -5.278240 4.654929 -16.181432 -1.421553 -4.083970 2.723462 0.342330 0.335820 -0.189290 0.177690 5.838786 -2.198337 4.530783 45.444248 -1.257306 -16.327647 -17.991381 70.877482 -14.098919 1.724353 -1.497334 -0.322710 0.258570 0.062800 -0.089050 
-0.164800 16.856060 -1.204840 -7.101295 -7.053130 -2.792471 -14.958968 12.179059 2.237112 0.803694 -2.080499 -19.413652 -1.029044 8.086580 34.414240 -0.112828 6.211637 2.628882 0.080450 -0.329080 0.212840 18.698178 -10.059730 4.512523 0.362239 14.759553 -22.774848 12.779553 -24.983350 78.822140 -2.693316 -14.341147 -0.045177 -0.112920 0.585520 0.262050 -4.458998 0.026298 -7.977467 11.558012 1.841991 11.073601 -5.727302 2.666578 3.690900 3.154909 0.775337 -6.490237 0.412350 -4.442321 33.090309 -6.544600 -2.890970 0.596480 -13.971048 3.150920 0.092054 -34.516125 0.465406 -5.085822 5.752261 -19.012080 -1.570607 -4.067140 2.748737 0.334780 0.343510 -0.207320 0.193170 7.345028 -2.461130 3.856043 44.133161 -0.293675 -15.281848 -19.949479 66.453967 -13.419873 1.742467 -1.449511 -0.334880 0.277880 0.059760 -0.081960 
-0.181510 16.741020 -1.223000 -6.491625 -8.881719 -2.321104 -14.965049 12.069200 2.533677 0.235946 -2.891597 -22.318244 -0.769988 8.765865 38.648930 0.010639 6.955023 2.356882 0.035610 -0.381160 0.168200 18.685980 -10.257826 4.203023 0.660124 13.450290 -20.439163 10.890472 -22.266014 76.175074 -2.439411 -13.607425 0.123433 -0.125260 0.622810 0.268900 -4.425530 0.280421 -7.912962 10.914729 2.783854 10.549265 -5.639448 3.534348 2.493054 3.125817 0.729466 -5.872265 0.507453 -4.457221 32.594008 -6.929140 -2.640840 2.217490 -14.767624 4.157110 -0.594851 -34.266434 -0.581195 -5.049790 7.127037 -22.651345 -1.828665 -4.099394 2.807430 0.293230 0.388160 -0.261430 0.178710 8.106623 -3.123841 3.441162 44.421887 0.767592 -14.010100 -20.639750 61.294578 -12.016872 1.771195 -1.456424 -0.348250 0.256520 0.098090 -0.083690 
-0.197880 16.650810 -1.237140 -6.095252 -10.822186 -1.945181 -14.966232 11.994157 2.838930 0.094407 -3.637550 -24.637115 -0.809736 9.463246 42.186726 0.102257 7.686432 2.095697 -0.040200 -0.495710 0.123630 18.669428 -10.513457 3.851140 1.335235 11.809444 -17.492111 8.599593 -18.978625 72.265976 -2.121677 -12.622135 0.380891 -0.174150 0.656800 0.279010 -4.387551 0.555269 -7.837364 10.501378 3.813576 9.854628 -5.534748 4.539583 1.666717 3.306331 0.919865 -5.779789 0.883559 -4.878869 32.847038 -8.132230 -2.258420 4.169060 -14.877462 4.724061 -0.999754 -35.561788 -1.520876 -5.262181 8.924246 -26.671232 -2.356667 -4.139810 2.824756 0.292010 0.434460 -0.318820 0.144660 7.779666 -3.474702 3.619799 45.954759 1.192809 -13.172030 -20.208563 56.355706 -10.467225 1.787879 -1.451501 -0.383970 0.234440 0.164200 -0.113410 
